<svg width="17" height="13" viewBox="0 0 17 13" fill="none" xmlns="http://www.w3.org/2000/svg">
<path d="M0 1.02632C0 0.75412 0.108129 0.493072 0.300601 0.300601C0.493072 0.108129 0.75412 0 1.02632 0H15.3947C15.6669 0 15.928 0.108129 16.1205 0.300601C16.3129 0.493072 16.4211 0.75412 16.4211 1.02632C16.4211 1.29851 16.3129 1.55956 16.1205 1.75203C15.928 1.9445 15.6669 2.05263 15.3947 2.05263H1.02632C0.75412 2.05263 0.493072 1.9445 0.300601 1.75203C0.108129 1.55956 0 1.29851 0 1.02632ZM0 6.5C0 6.2278 0.108129 5.96676 0.300601 5.77429C0.493072 5.58181 0.75412 5.47368 1.02632 5.47368H15.3947C15.6669 5.47368 15.928 5.58181 16.1205 5.77429C16.3129 5.96676 16.4211 6.2278 16.4211 6.5C16.4211 6.7722 16.3129 7.03324 16.1205 7.22571C15.928 7.41819 15.6669 7.52632 15.3947 7.52632H1.02632C0.75412 7.52632 0.493072 7.41819 0.300601 7.22571C0.108129 7.03324 0 6.7722 0 6.5ZM0 11.9737C0 11.7015 0.108129 11.4404 0.300601 11.248C0.493072 11.0555 0.75412 10.9474 1.02632 10.9474H15.3947C15.6669 10.9474 15.928 11.0555 16.1205 11.248C16.3129 11.4404 16.4211 11.7015 16.4211 11.9737C16.4211 12.2459 16.3129 12.5069 16.1205 12.6994C15.928 12.8919 15.6669 13 15.3947 13H1.02632C0.75412 13 0.493072 12.8919 0.300601 12.6994C0.108129 12.5069 0 12.2459 0 11.9737Z" fill="#000000"/>
</svg>
